# xmcd
#
# Track frame offsets:
#	150
#	15085
#	33132
#	50632
#	66560
#	80968
#	99347
#	119031
#	134022
#	148407
#	166237
#	182760
#
# Disc length: 2573 seconds
#
# Revision: 0
# Processed by: cddbd v1.5.2PL0 Copyright (c) Steve Scherf et al.
# Submitted via: EasyCDDAExtractor 8.2.3.1
#
DISCID=b00a0b0c
DTITLE=Frank Solivan and Dirty Kitchen - Bluegrass and New Acoustic American Roots
DTITLE=Music
DYEAR=2010
DGENRE=Bluegrass
TTITLE0=Driftin' Apart
TTITLE1=July You're A Woman
TTITLE2=Hello Friend
TTITLE3=Together We'll Fly
TTITLE4=Line Drive
TTITLE5=Tarred And Feathered
TTITLE6=Left Out Cold
TTITLE7=Runaway Ramp
TTITLE8=Same Old Love
TTITLE9=The Note That Said Goodbye
TTITLE10=Ominous Anonymous
TTITLE11=Paul And Silas
EXTD=
EXTT0=
EXTT1=
EXTT2=
EXTT3=
EXTT4=
EXTT5=
EXTT6=
EXTT7=
EXTT8=
EXTT9=
EXTT10=
EXTT11=
PLAYORDER=
